<?xml version="1.0" encoding="UTF-8"?>
<svg width="201px" height="200px" viewBox="0 0 201 200" version="1.1" xmlns="http://www.w3.org/2000/svg" xmlns:xlink="http://www.w3.org/1999/xlink">
    <title>icon</title>
    <g id="Symbols" stroke="none" stroke-width="1" fill="none" fill-rule="evenodd">
        <g id="icon" fill-rule="nonzero">
            <g id="Group">
                <rect id="Rectangle" fill="#141414" x="0.966797" y="0" width="200" height="200" rx="100"></rect>
                <polygon id="Path" fill="#FFFFFF" points="173.351 112.499 163.055 112.499 163.055 122.795 173.351 122.795"></polygon>
                <path d="M44.2376,122.792 C35.1592,122.792 29.0648,117.737 28.5771,111.152 L38.8799,111.152 C39.1221,113.529 41.257,115.111 44.1217,115.111 C46.8022,115.111 48.2039,113.894 48.2039,112.369 C48.2039,106.889 29.6787,110.848 29.6787,98.3562 C29.6787,92.5654 34.6169,87.8113 43.5146,87.8113 C52.2895,87.8113 57.163,92.6881 57.8382,99.3895 L48.1971,99.3895 C47.8936,97.0739 46.1236,95.546 43.1975,95.546 C40.759,95.546 39.4153,96.5248 39.4153,98.1686 C39.4153,103.595 57.8246,99.751 58.0019068,112.431 C58.0088,118.341 52.7704,122.792 44.2376,122.792 Z" id="Path" fill="#FFFFFF"></path>
                <polygon id="Path" fill="#FFFFFF" points="96.9551 77.2051 107.374 77.2051 107.374 122.307 96.9551 122.307"></polygon>
                <path d="M149.795,77.2051 L149.795,89.3017 C147.637,88.3434 145.249,87.8114 142.729,87.8114 C133.064,87.8114 125.237,95.6382 125.237,105.296 C125.237,114.961 133.064,122.788 142.729,122.788 C152.251,122.788 159.993,115.176 160.204,105.706 C160.218,105.569 160.218,105.433 160.218,105.296 L160.218,77.2051 L149.795,77.2051 Z M149.833,105.706 C149.622,109.45 146.521,112.421 142.729,112.421 C138.794,112.421 135.608,109.235 135.608,105.3 C135.608,101.371 138.794,98.1857 142.729,98.1857 C146.378,98.1857 149.386,100.935 149.795,104.471 C149.826,104.744 149.843,105.02 149.843,105.3 C149.847,105.433 149.84,105.569 149.833,105.706 Z" id="Shape" fill="#FFFFFF"></path>
                <polygon id="Path" fill="#FFFFFF" points="112.002 91.7325 122.421 91.7325 122.421 122.301 112.002 122.301"></polygon>
                <polygon id="Path" fill="#FFFFFF" points="122.298 77.2051 112.002 77.2051 112.002 88.1763 122.298 88.1763"></polygon>
                <path d="M76.5983,87.8113 C66.9401,87.8113 59.1133,95.6381 59.1133,105.296 C59.1133,114.961 66.9401,122.788 76.5983,122.788 C86.2633,122.788 94.0902,114.961 94.0902,105.296 C94.0902,95.6381 86.2633,87.8113 76.5983,87.8113 Z M76.5983,112.421 C72.6696,112.421 69.4843,109.235 69.4843,105.3 C69.4843,101.371 72.6696,98.1857 76.5983,98.1857 C80.5339,98.1857 83.7192,101.371 83.7192,105.3 C83.7192,109.232 80.5339,112.421 76.5983,112.421 Z" id="Shape" fill="#FFFFFF"></path>
            </g>
        </g>
    </g>
</svg>