<?xml version="1.0" encoding="UTF-8"?>
<svg width="407px" height="76px" viewBox="0 0 407 76" version="1.1" xmlns="http://www.w3.org/2000/svg" xmlns:xlink="http://www.w3.org/1999/xlink">
    <title>Brand/Logo</title>
    <g id="Brand/Logo" stroke="none" stroke-width="1" fill="none" fill-rule="evenodd">
        <g id="Group-7" transform="translate(102.000000, 6.000000)" fill="#141414" fill-rule="nonzero">
            <g id="Group">
                <polygon id="Path" points="202.952507 49.44 188.519152 49.44 188.519152 63.8625085 202.952507 63.8625085"></polygon>
                <path d="M21.9537444,63.8578983 C9.22708275,63.8578983 0.68366492,56.7780339 0,47.5530847 L14.4430158,47.5530847 C14.7824437,50.8827119 17.7752825,53.0993898 21.7912087,53.0993898 C25.5489612,53.0993898 27.5138275,51.3938983 27.5138275,49.2585763 C27.5138275,41.5815593 1.54421937,47.1278644 1.54421937,29.6287458 C1.54421937,21.5168814 8.46691832,14.8573559 20.9402099,14.8573559 C33.24125,14.8573559 40.0732313,21.6888678 41.0198409,31.076339 L27.5043289,31.076339 C27.078843,27.8324068 24.5975751,25.6922305 20.495591,25.6922305 C17.0772664,25.6922305 15.1936001,27.0632949 15.1936001,29.3659661 C15.1936001,36.9665085 41.0008436,31.5826441 41.2494464,49.3445424 C41.2589358,57.6235932 33.9153837,63.8578983 21.9537444,63.8578983 Z" id="Path"></path>
                <polygon id="Path" points="95.8564372 0 110.461853 0 110.461853 63.1793898 95.8564372 63.1793898"></polygon>
                <path d="M169.931083,0 L169.931083,16.9450034 C166.904809,15.6025763 163.558294,14.8573288 160.025063,14.8573288 C146.47617,14.8573288 135.504128,25.8211797 135.504128,39.3505085 C135.504128,52.8892203 146.47617,63.8530169 160.025063,63.8530169 C173.373398,63.8530169 184.226028,53.1902373 184.522386,39.9237966 C184.541384,39.7326102 184.541384,39.5414237 184.541384,39.3505085 L184.541384,0 L169.931083,0 Z M169.983733,39.9237966 C169.687374,45.1690847 165.3416,49.3301695 160.025063,49.3301695 C154.507968,49.3301695 150.042782,44.8680678 150.042782,39.3551186 C150.042782,33.851661 154.507968,29.3898305 160.025063,29.3898305 C165.140771,29.3898305 169.357364,33.2404068 169.931083,38.1944407 C169.974234,38.5765424 169.998116,38.9635254 169.998116,39.3551186 C170.00273,39.5414237 169.993231,39.7326102 169.983733,39.9237966 Z" id="Shape"></path>
                <polygon id="Path" points="116.94944 20.3502102 131.555127 20.3502102 131.555127 63.1698983 116.94944 63.1698983"></polygon>
                <polygon id="Path" points="131.383066 0 116.94944 0 116.94944 15.3684881 131.383066 15.3684881"></polygon>
                <path d="M67.3194679,14.8573559 C53.7800735,14.8573559 42.8077607,25.8212068 42.8077607,39.3505085 C42.8077607,52.8892203 53.7800735,63.8530169 67.3194679,63.8530169 C80.868361,63.8530169 91.8404024,52.8892203 91.8404024,39.3505085 C91.8404024,25.8212068 80.868361,14.8573559 67.3194679,14.8573559 Z M67.3194679,49.3301695 C61.8118717,49.3301695 57.3464144,44.868339 57.3464144,39.3551186 C57.3464144,33.8519322 61.8118717,29.3898305 67.3194679,29.3898305 C72.8365628,29.3898305 77.3017487,33.8519322 77.3017487,39.3551186 C77.3017487,44.8634576 72.8365628,49.3301695 67.3194679,49.3301695 Z" id="Shape"></path>
            </g>
        </g>
    </g>
</svg>