<svg width="64" height="24" viewBox="0 0 64 24" fill="none" xmlns="http://www.w3.org/2000/svg">
<path d="M63.561 17.4832H59.0442V21.9999H63.561V17.4832Z" fill="#141414"/>
<path d="M6.87016 21.9987C2.8875 21.9987 0.213944 19.7815 0 16.8925H4.51976C4.62598 17.9353 5.56255 18.6295 6.81929 18.6295C7.99523 18.6295 8.61014 18.0954 8.61014 17.4266C8.61014 15.0223 0.483245 16.7593 0.483245 11.2791C0.483245 8.73866 2.64962 6.65308 6.55298 6.65308C10.4025 6.65308 12.5404 8.79252 12.8367 11.7324H8.60714C8.47399 10.7165 7.69751 10.0463 6.41384 10.0463C5.34412 10.0463 4.75465 10.4756 4.75465 11.1968C4.75465 13.5771 12.8307 11.891 12.9085 17.4535C12.9115 20.0463 10.6134 21.9987 6.87016 21.9987Z" fill="#141414"/>
<path d="M29.9971 2H34.5677V21.7861H29.9971V2Z" fill="#141414"/>
<path d="M53.1781 2V7.30672C52.231 6.88631 51.1837 6.65291 50.0781 6.65291C45.8381 6.65291 42.4045 10.0865 42.4045 14.3235C42.4045 18.5635 45.8381 21.9971 50.0781 21.9971C54.2553 21.9971 57.6514 18.6577 57.7442 14.503C57.7502 14.4432 57.7502 14.3833 57.7502 14.3235V2H53.1781ZM53.1945 14.503C53.1018 16.1458 51.7418 17.4489 50.0781 17.4489C48.3516 17.4489 46.9542 16.0515 46.9542 14.325C46.9542 12.6015 48.3516 11.2041 50.0781 11.2041C51.6789 11.2041 52.9985 12.41 53.1781 13.9614C53.1915 14.0811 53.199 14.2023 53.199 14.325C53.2005 14.3833 53.1975 14.4432 53.1945 14.503Z" fill="#141414"/>
<path d="M36.5984 8.37305H41.169V21.783H36.5984V8.37305Z" fill="#141414"/>
<path d="M41.1152 2H36.5984V6.813H41.1152V2Z" fill="#141414"/>
<path d="M21.0666 6.65308C16.8296 6.65308 13.396 10.0867 13.396 14.3237C13.396 18.5636 16.8296 21.9972 21.0666 21.9972C25.3066 21.9972 28.7401 18.5636 28.7401 14.3237C28.7401 10.0867 25.3066 6.65308 21.0666 6.65308ZM21.0666 17.449C19.343 17.449 17.9457 16.0517 17.9457 14.3251C17.9457 12.6016 19.343 11.2043 21.0666 11.2043C22.7931 11.2043 24.1905 12.6016 24.1905 14.3251C24.1905 16.0502 22.7931 17.449 21.0666 17.449Z" fill="#141414"/>
</svg>
