<svg xmlns="http://www.w3.org/2000/svg" width="66" height="20" viewBox="0 0 66 20" fill="none">
  <path d="M47.4413 0.819227C45.9247 0.266578 44.3215 -0.010745 42.7073 0.000318412C37.4872 0.000318412 33.8004 2.62996 33.7743 6.40478C33.7417 9.17799 36.3942 10.7408 38.4007 11.6673C40.4594 12.62 41.1478 13.2203 41.1413 14.0719C41.1282 15.3671 39.4969 15.9544 37.9798 15.9544C35.895 15.9544 34.7564 15.664 33.0044 14.9365L32.3551 14.633L31.6145 18.9788C32.8837 19.5073 35.1707 19.9608 37.5328 20C43.0825 20 46.7105 17.3867 46.7529 13.3704C46.7986 11.1551 45.3631 9.48141 42.3419 8.09807C40.5051 7.20085 39.3664 6.60054 39.3664 5.69028C39.3664 4.88442 40.3419 4.02309 42.3811 4.02309C43.7382 3.99026 45.0869 4.24488 46.3386 4.77023L46.828 4.98882L47.5686 0.789864L47.4413 0.819227ZM60.9876 0.352678H56.9094C55.6402 0.352678 54.6843 0.701775 54.1297 1.96113L46.2864 19.7292H51.836L52.9453 16.8157L59.7185 16.8222C59.8783 17.5041 60.3677 19.7292 60.3677 19.7292H65.2616L60.9876 0.352678ZM26.2671 0.189547H31.5558L28.2475 19.5759H22.9654L26.2671 0.183023V0.189547ZM12.8416 10.8745L13.3897 13.5662L18.5576 0.352678H24.1595L15.8366 19.7031H10.2478L5.68017 3.31837C5.60619 3.0482 5.43246 2.81617 5.19404 2.66912C3.54774 1.81868 1.80338 1.17331 0 0.747449L0.0717769 0.339625H8.58388C9.73883 0.385301 10.6687 0.74745 10.9786 1.98071L12.8383 10.8843L12.8416 10.8745ZM54.4624 12.8517L56.5701 7.42924C56.544 7.48796 57.004 6.31017 57.2715 5.58261L57.6337 7.25632L58.8571 12.8484H54.4592L54.4624 12.8517Z" fill="#FDFDFD"/>
</svg>