<svg width="144" height="44" viewBox="0 0 144 44" fill="none" xmlns="http://www.w3.org/2000/svg">
<path d="M104.583 1.8023C101.246 0.586471 97.7194 -0.023639 94.1683 0.000700507C82.6839 0.000700507 74.5731 5.78592 74.5157 14.0905C74.4439 20.1916 80.2794 23.6297 84.6937 25.6682C89.2228 27.764 90.7373 29.0847 90.723 30.9581C90.6942 33.8077 87.1054 35.0997 83.7678 35.0997C79.1812 35.0997 76.6762 34.4608 72.8218 32.8602L71.3934 32.1927L69.7641 41.7534C72.5562 42.9162 77.5878 43.9139 82.7844 44C94.9937 44 102.975 38.2507 103.069 29.4149C103.169 24.5413 100.011 20.8591 93.3643 17.8157C89.3233 15.8419 86.8183 14.5212 86.8183 12.5186C86.8183 10.7457 88.9644 8.8508 93.4505 8.8508C96.4361 8.77857 99.4032 9.33873 102.157 10.4945L103.234 10.9754L104.863 1.7377L104.583 1.8023ZM134.385 0.775891H125.413C122.621 0.775891 120.518 1.5439 119.297 4.3145L102.042 43.4043H114.251L116.692 36.9946L131.593 37.0089C131.945 38.5091 133.021 43.4043 133.021 43.4043H143.788L134.385 0.775891ZM57.9998 0.417004H69.6349L62.3567 43.0669H50.736L57.9998 0.40265V0.417004ZM28.4636 23.924L29.6694 29.8456L41.0389 0.775891H53.363L35.0527 43.3468H22.7573L12.7085 7.30042C12.5458 6.70604 12.1636 6.19557 11.6391 5.87206C8.0172 4.0011 4.1796 2.58128 0.212158 1.64439L0.370067 0.747175H19.0967C21.6376 0.847663 23.6832 1.64439 24.3651 4.35756L28.4564 23.9455L28.4636 23.924ZM120.03 28.2737L124.666 16.3443C124.609 16.4735 125.621 13.8824 126.21 12.2817L127.006 15.9639L129.698 28.2665H120.022L120.03 28.2737Z" fill="#0A21C3"/>
</svg>
