<svg width="337" height="203" fill="none" xmlns="http://www.w3.org/2000/svg"><path fill="#141414" d="M0 0h1060v203H0z"/><path d="m110.178 171.023 47.062 27.169 47.062-27.169-47.062-27.168m188.24 0-47.062 27.168 47.062 27.169 47.062-27.169" stroke="#393939" stroke-width=".573"/><path transform="scale(1.22477 .70706) rotate(-45 440.972 -107.583)" stroke="#393939" stroke-width=".573" d="M0 0h54.341v54.341H0z"/><path transform="scale(1.22477 .70706) rotate(-45 402.548 -14.819)" stroke="#393939" stroke-width=".573" d="M0 0h54.341v54.341H0z"/><path transform="scale(1.22477 .70706) rotate(-45 506.565 -134.75)" fill="#141414" fill-opacity=".6" stroke="#393939" stroke-width=".573" d="M0 0h54.341v54.341H0z"/><path d="m110.174 225.36 47.062-27.169 47.062 27.169-47.062 27.169" stroke="#393939" stroke-width=".573"/><path transform="scale(1.22477 .70706) rotate(-45 375.377 -80.413)" fill="#141414" fill-opacity=".3" stroke="#393939" stroke-width=".573" d="M0 0h54.341v54.341H0z"/><circle r="1.133" transform="scale(1.22477 .70706) rotate(-45 402.547 -14.816)" fill="#7D7D7D"/><circle r="1.133" transform="scale(1.22477 .70706) rotate(-45 375.378 -80.415)" fill="#7D7D7D"/><circle r="1.133" transform="scale(1.22477 .70706) rotate(-45 440.972 -107.58)" fill="#7D7D7D"/><circle r="1.133" transform="scale(1.22477 .70706) rotate(-45 413.802 -173.18)" fill="#7D7D7D"/><circle r="1.133" transform="scale(1.22477 .70706) rotate(-45 348.206 -146.01)" fill="#7D7D7D"/><circle cx="91.07" cy="101.372" r=".979" fill="#fff"/><circle cx="218.447" cy="128.498" r=".979" fill="#fff"/><circle cx="223.433" cy="69.422" r=".979" fill="#fff"/><path d="m251.838 100.502-44.215 25.232 44.215 25.989v-51.221Z" fill="#252525"/><path d="m186.29 113.444 21.509 12.456 44.347-25.412-21.675-12.54-44.181 25.496Z" fill="url(#a)"/><path d="M273.302 88.022 251.817 100.5l43.687 25.459 22.094-12.502-44.296-25.435Z" fill="url(#b)"/><path d="M251.515 199.324V151.69l-12.043-7.224-14.469-8.398-17.362-10.168v47.84l43.874 25.584Z" fill="url(#c)"/><path d="m295.665 125.95-44.232 25.708.136 47.55 44.096-25.567V125.95Z" fill="url(#d)"/><path d="m186.083 138.601 21.62-12.772 44.034 25.762-21.651 12.759-44.003-25.749Z" fill="url(#e)"/><path d="m273.609 164.184-21.731-12.775 43.809-25.387 21.911 12.612-43.989 25.55Z" fill="url(#f)"/><path d="m295.687 125.997-43.797-25.495v50.912l43.797-25.417Z" fill="#8D8D8D"/><circle cx="221.585" cy="56.8" r=".979" fill="#fff"/><path d="m186.083 214.794-18.295 10.567v-20.997l18.295-10.54v20.97Z" fill="url(#g)"/><path d="m167.787 225.361-18.295-10.567v-20.97l18.295 10.54v20.997Z" fill="url(#h)"/><path d="m167.787 204.336-18.295-10.567 18.186-10.485 18.294 10.567-18.185 10.485Z" fill="url(#i)"/><path d="m167.802 204.403 18.193-10.508" stroke="url(#j)" stroke-width=".35"/><path d="m235.217 65.718 35.404-19.678c1.698-.629 3.244.507 3.127 1.479a1.43 1.43 0 0 0-2.156-1.151l-.337.199-37.843 21.113.249 65.769v4.749a1.553 1.553 0 0 0 1.727 1.379s-2.239.485-2.509-1.697l-.181-67.867a4.9 4.9 0 0 1 2.519-4.295Z" fill="url(#k)"/><path d="m99.23 141.281-13.41 7.746v-15.392l13.41-7.727v15.373Z" fill="url(#l)"/><path d="m85.818 149.027-13.411-7.746v-15.373l13.41 7.727v15.392Z" fill="url(#m)"/><path d="m85.818 133.615-13.411-7.746 13.33-7.686 13.412 7.746-13.331 7.686Z" fill="url(#n)"/><path d="m85.83 133.663 13.335-7.703" stroke="url(#o)" stroke-width=".35"/><g opacity=".75" filter="url(#p)"><g clip-path="url(#q)"><path d="M271.428 46.447c1.303-.73 2.36-.11 2.36 1.384v67.645c0 1.495-1.057 3.298-2.36 4.028l-35.413 19.832c-1.304.73-2.361.111-2.361-1.383V70.307c0-1.495 1.057-3.298 2.361-4.028l35.413-19.832Z" fill="#248BF5"/><g clip-path="url(#r)"><path d="m265.008 115.697-1.229 4.175-.804.449-.605-2.443a.257.257 0 0 0-.055-.149.164.164 0 0 0-.123-.056 2.302 2.302 0 0 0-.751.124l.017-.112 1.293-.724c.084-.046.166-.055.23-.025s.107.097.119.19l.32 1.838.791-2.82.797-.447Zm3.145.587c0-.92-1.071-.371-1.071-.782 0-.125.104-.317.323-.474.257-.172.515-.263.748-.262l.141-.818c-.228.026-.47.109-.714.245-.751.421-1.279 1.191-1.283 1.871 0 .501.377.572.664.576.287.004.396.06.394.214 0 .233-.235.468-.453.595-.271.161-.54.238-.782.225l-.137.84c.269-.026.556-.123.846-.287.796-.446 1.319-1.207 1.321-1.933l.003-.01Zm1.987.025.701-.392-.616-3.142-.648.363a.62.62 0 0 0-.199.178.821.821 0 0 0-.131.263l-1.133 3.865.798-.447.157-.609.972-.545.099.466Zm-.848-.76.4-1.534.23 1.181-.63.353Zm-3.199-.46-.628 3.838-.758.425.626-3.837.76-.426Z" fill="#fff"/></g><path d="m253.08 66.202.029-.016v-.1l.029-.016v-.066l.029-.017v-.066l.029-.016v-.067l.03-.016v-.033l.029-.017v-.033l.029-.016v-.033l.029-.016v-.034l.029-.016v-.033l.03-.016v-.034l.029-.016v-.033l.058-.033v-.033l.059-.033v-.033l.087-.049v-.033l.146-.082v-.033l4.467-2.502v.033l.176-.098v.034l.087-.05v.034l.029-.017v.033l.059-.032v.033l.058-.033v.033l.029-.016v.033l.03-.016v.033l.029-.017v.034l.029-.017v.033l.029-.016v.066l.029-.016v.066l.03-.016v.033l.029-.016v.1l.029-.017v.132l.029-.016V68.4l-.029.016v.133l-.029.016v.067l-.029.016v.066l-.03.017v.066l-.029.016v.033l-.029.017v.066l-.029.016v.033l-.029.017v.033l-.03.016v.033l-.058.033v.033l-.029.017v.033l-.059.032v.034l-.058.032v.033l-.088.05v.033l-4.73 2.648v-.033l-.116.066v-.033l-.03.016v-.033l-.058.033v-.034l-.058.033v-.033l-.03.016v-.033l-.029.017v-.034l-.029.017v-.033l-.029.016v-.033l-.029.016v-.033l-.03.016v-.066l-.029.016v-.066l-.029.017v-.067l-.029.017v-.133l-.029.016" fill="url(#s)"/><path d="m253.09 71.509-.019.01c.002.48.333.683.747.453l4.356-2.44c.411-.23.743-.806.744-1.287v-5.093c-.001-.48-.333-.684-.744-.453l-4.356 2.44c-.414.23-.745.806-.747 1.287v5.093l.038-.021v-5.093c0-.457.318-1.004.709-1.224l4.356-2.44c.389-.216.706-.025.706.432v5.093c0 .457-.317 1.003-.706 1.222l-4.356 2.44c-.391.217-.709.027-.709-.43l-.019.01" fill="#A7A9AC"/><path d="M257.253 63.296v2.237l-.741.852v1.704l.048-.027v-1.67l.74-.854V63.27l-.047.027" fill="#8A8C8E"/><path d="m256.526 66.341-1.513.848v1.707l-.672 1.162v1.538l.047-.026v-1.516l.671-1.162v-1.676l1.467-.822v-.053Z" fill="#8A8C8E"/><path d="m255.035 68.921 1.471-.823.734.447-.001 1.428.048-.026v-1.449l-.762-.464-1.49.834v.053Z" fill="#8A8C8E"/><path d="M255.921 68.4v2.332l.046-.026v-2.333l-.046.026Zm-.069-4.312v2.65l.048-.027v-2.65l-.048.027Zm-.799 3.086-.598-.393v-1.956l-.048.027v1.977l.611.4.035-.055" fill="#8A8C8E"/><path d="M257.337 63.22v2.166l-.739.851v1.703l.048-.027v-1.669l.739-.852v-2.198l-.048.026Z" fill="#A7A9AC"/><path d="m256.611 66.193-1.513.847v1.709l-.673 1.162v1.624l.047-.027v-1.6l.673-1.163v-1.677l1.466-.82v-.055" fill="#A7A9AC"/><path d="m255.121 68.774 1.47-.824.735.447v1.515l.046-.026V68.35l-.761-.464-1.49.834v.054" fill="#A7A9AC"/><path d="M256.005 68.252v2.419l.048-.027v-2.419l-.048.027Zm-.067-4.226v2.571l.047-.027V64l-.047.027Zm-.8 3-.599-.391V64.75l-.046.026v1.906l.611.4.034-.055" fill="#A7A9AC"/><path d="M253.161 69.037v.053l1.766-.989v-.053l-1.766.99Z" fill="#8A8C8E"/><path d="M253.163 69.171v.053l1.769-.99v-.054l-1.769.991Z" fill="#A7A9AC"/><path d="M256.722 67.043v.053l2.099-1.175v-.053l-2.099 1.175Z" fill="#8A8C8E"/><path d="M256.722 67.177v.054l2.105-1.179V66l-2.105 1.178Z" fill="#A7A9AC"/><path d="M262.071 63.75a.5.5 0 0 1 .11.185.792.792 0 0 1 .039.262c0 .1-.013.202-.039.307a1.72 1.72 0 0 1-.11.307c-.065.138-.046.27.04.296.086.026.208-.063.274-.2a2.55 2.55 0 0 0 .166-.466c.04-.157.06-.313.06-.463 0-.149-.02-.283-.06-.396a.737.737 0 0 0-.166-.279c-.064-.065-.187-.017-.274.106-.086.125-.105.278-.04.34m.759-.878c.13.215.207.506.207.868s-.077.74-.207 1.099c-.051.139-.024.27.057.29.082.023.189-.071.239-.21a4.05 4.05 0 0 0 .257-1.373c.001-.45-.094-.818-.257-1.085-.05-.082-.157-.056-.239.057-.081.114-.108.274-.057.354Z" fill="#fff"/><path d="M263.412 62.097c.213.3.335.721.335 1.245 0 .525-.122 1.08-.335 1.622-.058.143-.024.268.072.28.098.011.223-.097.28-.24.248-.63.391-1.283.391-1.891 0-.607-.143-1.099-.391-1.452-.057-.08-.182-.047-.28.073-.096.12-.129.281-.072.363" fill="#fff"/><path d="M264.185 61.215c.307.383.481.927.481 1.612 0 .686-.174 1.426-.481 2.152-.062.147-.024.27.085.273.109.004.248-.115.31-.262.345-.816.541-1.649.541-2.418 0-.769-.196-1.382-.541-1.812-.062-.078-.201-.04-.31.085-.109.125-.147.29-.085.37" fill="#fff"/></g></g><path opacity=".6" d="m170.133 32 38.365 94.061 43.828 25.663 43.993-25.705L325.959 32H170.133Z" fill="url(#t)"/><defs><linearGradient id="a" x1="219.218" y1="87.948" x2="219.218" y2="125.9" gradientUnits="userSpaceOnUse"><stop stop-color="#454545"/><stop offset="1" stop-color="#2C2C2C"/></linearGradient><linearGradient id="b" x1="284.708" y1="88.022" x2="284.708" y2="125.959" gradientUnits="userSpaceOnUse"><stop stop-color="#454545"/><stop offset="1" stop-color="#2C2C2C"/></linearGradient><linearGradient id="c" x1="229.578" y1="125.9" x2="229.578" y2="199.324" gradientUnits="userSpaceOnUse"><stop stop-color="#2C2C2C"/><stop offset="1" stop-color="#111"/></linearGradient><linearGradient id="d" x1="273.549" y1="125.95" x2="273.549" y2="199.208" gradientUnits="userSpaceOnUse"><stop stop-color="#4A4A4A"/><stop offset="1" stop-color="#343434"/></linearGradient><linearGradient id="e" x1="218.91" y1="125.829" x2="218.91" y2="164.35" gradientUnits="userSpaceOnUse"><stop stop-color="#454545"/><stop offset="1" stop-color="#2C2C2C"/></linearGradient><linearGradient id="f" x1="284.738" y1="126.022" x2="284.738" y2="164.184" gradientUnits="userSpaceOnUse"><stop stop-color="#454545"/><stop offset="1" stop-color="#2C2C2C"/></linearGradient><linearGradient id="g" x1="176.936" y1="193.824" x2="176.936" y2="225.361" gradientUnits="userSpaceOnUse"><stop stop-color="#4A4A4A"/><stop offset="1" stop-color="#343434"/></linearGradient><linearGradient id="h" x1="158.639" y1="193.824" x2="158.639" y2="225.361" gradientUnits="userSpaceOnUse"><stop stop-color="#2C2C2C"/><stop offset="1" stop-color="#111"/></linearGradient><linearGradient id="i" x1="167.732" y1="183.284" x2="167.732" y2="204.336" gradientUnits="userSpaceOnUse"><stop stop-color="#454545"/><stop offset="1" stop-color="#2C2C2C"/></linearGradient><linearGradient id="j" x1="176.898" y1="193.895" x2="176.898" y2="204.403" gradientUnits="userSpaceOnUse"><stop stop-color="#525252" stop-opacity="0"/><stop offset="1" stop-color="#737373"/></linearGradient><linearGradient id="k" x1="253.222" y1="45.859" x2="253.222" y2="139.621" gradientUnits="userSpaceOnUse"><stop stop-color="#332F2F"/><stop offset="1"/></linearGradient><linearGradient id="l" x1="92.525" y1="125.908" x2="92.525" y2="149.027" gradientUnits="userSpaceOnUse"><stop stop-color="#4A4A4A"/><stop offset="1" stop-color="#343434"/></linearGradient><linearGradient id="m" x1="79.112" y1="125.908" x2="79.112" y2="149.027" gradientUnits="userSpaceOnUse"><stop stop-color="#2C2C2C"/><stop offset="1" stop-color="#111"/></linearGradient><linearGradient id="n" x1="85.778" y1="118.183" x2="85.778" y2="133.615" gradientUnits="userSpaceOnUse"><stop stop-color="#454545"/><stop offset="1" stop-color="#2C2C2C"/></linearGradient><linearGradient id="o" x1="92.498" y1="125.96" x2="92.498" y2="133.663" gradientUnits="userSpaceOnUse"><stop stop-color="#525252" stop-opacity="0"/><stop offset="1" stop-color="#737373"/></linearGradient><linearGradient id="s" x1="258.143" y1="61.91" x2="257.142" y2="72.412" gradientUnits="userSpaceOnUse"><stop stop-color="#808285"/><stop offset=".39" stop-color="#D1D3D4"/><stop offset=".637" stop-color="#E7E8E8"/><stop offset=".863" stop-color="#939598"/><stop offset="1" stop-color="#939598"/></linearGradient><linearGradient id="t" x1="250.49" y1="41.477" x2="252.643" y2="151.471" gradientUnits="userSpaceOnUse"><stop stop-color="#fff" stop-opacity="0"/><stop offset="1" stop-color="#fff" stop-opacity=".38"/></linearGradient><clipPath id="q"><path d="M271.428 46.447c1.303-.73 2.36-.11 2.36 1.384v67.645c0 1.495-1.057 3.298-2.36 4.028l-35.413 19.832c-1.304.73-2.361.111-2.361-1.383V70.307c0-1.495 1.057-3.298 2.361-4.028l35.413-19.832Z" fill="#fff"/></clipPath><clipPath id="r"><path fill="#fff" transform="matrix(.8725 -.48862 0 1 261.394 115.653)" d="M0 0h10.823v5.637H0z"/></clipPath><filter id="p" x="232.753" y="44.223" width="41.938" height="97.337" filterUnits="userSpaceOnUse" color-interpolation-filters="sRGB"><feFlood flood-opacity="0" result="BackgroundImageFix"/><feGaussianBlur in="BackgroundImage" stdDeviation=".451"/><feComposite in2="SourceAlpha" operator="in" result="effect1_backgroundBlur_2_599"/><feBlend in="SourceGraphic" in2="effect1_backgroundBlur_2_599" result="shape"/></filter></defs></svg>