<svg width="1060" height="203" fill="none" xmlns="http://www.w3.org/2000/svg"><path fill="#141414" d="M0 0h1060v203H0z"/><path d="m640.501 177.021 59.926 34.595 59.925-34.595-59.925-34.594m239.691 0-59.925 34.594 59.925 34.595 59.922-34.595" stroke="#393939" stroke-width=".73"/><path transform="scale(1.22477 .70706) rotate(-45 696.143 -658.798)" stroke="#393939" stroke-width=".73" d="M0 0h69.194v69.194H0z"/><path transform="scale(1.22477 .70706) rotate(-45 647.216 -540.678)" stroke="#393939" stroke-width=".73" d="M0 0h69.194v69.194H0z"/><path transform="scale(1.22477 .70706) rotate(-45 612.618 -624.202)" fill="#141414" fill-opacity=".3" stroke="#393939" stroke-width=".73" d="M0 0h69.194v69.194H0z"/><circle r="1.442" transform="scale(1.22477 .70706) rotate(-45 612.619 -624.204)" fill="#7D7D7D"/><circle r="1.442" transform="scale(1.22477 .70706) rotate(-45 661.546 -742.323)" fill="#7D7D7D"/><circle r="1.442" transform="scale(1.22477 .70706) rotate(-45 578.021 -707.727)" fill="#7D7D7D"/><path d="m282.501 213.021 59.926 34.595 59.925-34.595-59.925-34.594m239.691 0-59.925 34.594 59.925 34.595 59.925-34.595" stroke="#393939" stroke-width=".73"/><path transform="scale(1.22477 .70706) rotate(-45 527.928 -245.908)" fill="#141414" fill-opacity=".3" stroke="#393939" stroke-width=".73" d="M0 0h69.194v69.194H0z"/><circle r="1.442" transform="scale(1.22477 .70706) rotate(-45 493.331 -329.433)" fill="#7D7D7D"/><circle cx="616.171" cy="88.333" r="1.246" fill="#fff"/><circle cx="509.525" cy="55.642" r=".643" fill="#fff"/><circle cx="533.252" cy="153.643" r=".643" fill="#fff"/><circle cx="778.364" cy="122.874" r="1.246" fill="#fff"/><circle cx="784.712" cy="47.65" r="1.246" fill="#fff"/><path d="m820.881 87.226-56.3 32.128 56.3 33.093v-65.22Z" fill="#252525"/><path d="m737.417 103.705 27.388 15.861 56.468-32.358-27.599-15.967-56.257 32.464Z" fill="url(#a)"/><path d="m848.212 71.333-27.358 15.89 55.628 32.416 28.133-15.919-56.403-32.387Z" fill="url(#b)"/><path d="M820.47 213.058v-60.653l-15.336-9.199-18.423-10.693-22.107-12.947v60.916l55.866 32.576Z" fill="url(#c)"/><path d="m876.687 119.63-56.322 32.734.173 60.547 56.149-32.555V119.63Z" fill="url(#d)"/><path d="m737.153 135.738 27.53-16.263 56.07 32.804-27.57 16.246-56.03-32.787Z" fill="url(#e)"/><path d="m848.603 168.314-27.671-16.267 55.783-32.325 27.9 16.058-56.012 32.534Z" fill="url(#f)"/><path d="m876.715 119.69-55.768-32.464v64.828l55.768-32.364Z" fill="#8D8D8D"/><circle cx="782.359" cy="31.578" r="1.246" fill="#fff"/><path d="m713.856 219.44-23.294-13.455 23.155-13.351 23.295 13.455-23.156 13.351Z" fill="url(#g)"/><path d="m1029.78 157.787-12.12 6.999v-13.907l12.12-6.98v13.888Z" fill="url(#h)"/><path d="m1017.66 164.786-12.12-6.999v-13.888l12.12 6.98v13.907Z" fill="url(#i)"/><path d="m1017.66 150.862-12.12-6.999 12.05-6.944 12.11 6.998-12.04 6.945Z" fill="url(#j)"/><path d="m1017.67 150.906 12.05-6.96" stroke="url(#k)" stroke-width=".446"/><path d="m799.718 42.933 45.08-25.055c2.162-.802 4.131.645 3.981 1.882a1.82 1.82 0 0 0-2.744-1.466l-.429.254-48.188 26.884.318 83.745v6.047a1.977 1.977 0 0 0 2.199 1.756s-2.852.618-3.195-2.161l-.23-86.416a6.237 6.237 0 0 1 3.208-5.47Z" fill="url(#l)"/><path d="m626.562 139.151-17.077 9.863v-19.599l17.077-9.838v19.574Z" fill="url(#m)"/><path d="m609.483 149.014-17.076-9.863v-19.574l17.076 9.838v19.599Z" fill="url(#n)"/><path d="m609.484 129.389-17.077-9.864 16.975-9.787 17.076 9.864-16.974 9.787Z" fill="url(#o)"/><path d="m609.498 129.451 16.981-9.809" stroke="url(#p)" stroke-width=".446"/><path d="m514.882 81.842-8.804 5.085V76.822l8.804-5.072v10.092Z" fill="url(#q)"/><path d="m506.077 86.927-8.804-5.085V71.75l8.804 5.072v10.105Z" fill="url(#r)"/><path d="m506.077 76.809-8.804-5.085 8.752-5.046 8.804 5.085-8.752 5.046Z" fill="url(#s)"/><path d="m506.085 76.841 8.755-5.057" stroke="url(#t)" stroke-width=".23"/><g opacity=".75" filter="url(#u)"><g clip-path="url(#v)"><path d="M845.825 18.395c1.66-.93 3.006-.14 3.006 1.762v86.135c0 1.903-1.346 4.199-3.006 5.129l-45.092 25.252c-1.66.93-3.006.141-3.006-1.762V48.777c0-1.903 1.346-4.2 3.006-5.13l45.092-25.252Z" fill="#248BF5"/><g clip-path="url(#w)"><path d="m837.651 106.573-1.566 5.316-1.022.572-.771-3.111a.33.33 0 0 0-.071-.19.21.21 0 0 0-.156-.072 3 3 0 0 0-.957.158l.023-.142 1.645-.921c.108-.06.212-.071.294-.033.082.039.135.124.152.242l.406 2.341 1.007-3.591 1.016-.569Zm4.004.747c0-1.171-1.363-.472-1.363-.996 0-.159.132-.403.411-.602.327-.22.656-.335.952-.334l.18-1.042a2.456 2.456 0 0 0-.909.312c-.957.536-1.63 1.517-1.634 2.383 0 .637.479.727.845.733.366.005.505.076.502.272 0 .296-.3.597-.577.757-.345.205-.688.304-.995.288l-.175 1.069a2.755 2.755 0 0 0 1.077-.365c1.014-.568 1.68-1.537 1.682-2.462l.004-.013Zm2.53.033.893-.501-.784-3.999-.825.462a.795.795 0 0 0-.254.226 1.068 1.068 0 0 0-.167.336l-1.443 4.92 1.016-.569.2-.776 1.239-.693.125.594Zm-1.08-.969.509-1.953.293 1.504-.802.449Zm-4.072-.585-.8 4.887-.966.541.798-4.886.968-.542Z" fill="#fff"/></g><path d="m822.462 43.55.037-.021v-.127l.037-.02v-.085l.037-.02v-.085l.038-.02v-.085l.037-.021v-.042l.037-.021v-.042l.037-.021v-.042l.037-.021v-.042l.038-.021v-.042l.037-.021v-.042l.037-.021v-.042l.074-.042v-.042l.075-.042v-.042l.111-.063v-.042l.186-.104v-.042l5.688-3.186v.043l.223-.125V39l.112-.063v.043l.037-.021v.042l.074-.042v.042l.075-.041v.042l.037-.02v.041l.037-.02v.042l.037-.021v.042l.037-.02v.042l.038-.021v.084l.037-.02v.084l.037-.021v.042l.037-.02v.126l.037-.021v.169l.038-.021v6.879l-.038.02v.17l-.037.02v.084l-.037.021v.084l-.037.021v.085l-.037.02v.043l-.038.02v.085l-.037.02v.043l-.037.02v.043l-.037.02v.043l-.074.042v.042l-.038.02v.043l-.074.042v.042l-.074.041v.043l-.112.062v.042l-6.023 3.373v-.042l-.148.083v-.042l-.038.02v-.041l-.074.041v-.042l-.074.042v-.042l-.037.02v-.042l-.038.021v-.042l-.037.02v-.041l-.037.02v-.042l-.037.02v-.041l-.037.02v-.084l-.038.021v-.084l-.037.02v-.084l-.037.02v-.168l-.037.02" fill="url(#x)"/><path d="m822.475 50.307-.023.013c.001.61.423.87.949.577l5.548-3.106c.523-.295.945-1.028.947-1.64v-6.485c-.002-.61-.424-.87-.947-.577l-5.548 3.106c-.526.295-.948 1.027-.949 1.64v6.485l.048-.027v-6.485c0-.582.405-1.278.901-1.558l5.548-3.107c.495-.276.899-.032.899.55v6.485c0 .582-.404 1.278-.899 1.556l-5.548 3.107c-.496.277-.901.034-.901-.548l-.025.014" fill="#A7A9AC"/><path d="M827.776 39.85v2.848l-.943 1.085v2.17l.061-.035v-2.126l.942-1.087v-2.89l-.06.034" fill="#8A8C8E"/><path d="m826.85 43.727-1.927 1.08v2.173l-.855 1.48v1.958l.06-.033v-1.93l.855-1.48V44.84l1.867-1.046v-.067Z" fill="#8A8C8E"/><path d="m824.952 47.012 1.872-1.048.935.569-.001 1.819.061-.034v-1.845l-.97-.59-1.897 1.061v.068Z" fill="#8A8C8E"/><path d="M826.079 46.348v2.97l.06-.033v-2.97l-.06.033Zm-.087-5.49v3.374l.061-.034v-3.374l-.061.034Zm-1.018 3.93-.761-.5v-2.491l-.061.034v2.517l.779.51.043-.07" fill="#8A8C8E"/><path d="M827.883 39.753v2.758l-.941 1.084v2.168l.061-.035v-2.124l.941-1.086v-2.8l-.061.035Z" fill="#A7A9AC"/><path d="m826.958 43.538-1.926 1.079v2.175l-.856 1.48v2.068l.059-.033v-2.04l.857-1.48v-2.134l1.866-1.046v-.069" fill="#A7A9AC"/><path d="m825.061 46.824 1.872-1.048.935.569v1.929l.06-.034v-1.955l-.97-.59-1.897 1.061v.068" fill="#A7A9AC"/><path d="M826.187 46.16v3.08l.061-.034v-3.08l-.061.035Zm-.086-5.381v3.274l.061-.034v-3.274l-.061.034Zm-1.018 3.821-.763-.5v-2.4l-.059.034v2.426l.779.51.043-.07" fill="#A7A9AC"/><path d="M822.566 47.16v.067l2.248-1.259v-.067l-2.248 1.259Z" fill="#8A8C8E"/><path d="M822.568 47.33v.068l2.252-1.262v-.067l-2.252 1.261Z" fill="#A7A9AC"/><path d="M827.1 44.62v.068l2.672-1.496v-.068l-2.672 1.497Z" fill="#8A8C8E"/><path d="M827.1 44.792v.067l2.68-1.5v-.068l-2.68 1.5Z" fill="#A7A9AC"/><path d="M833.911 40.427a.63.63 0 0 1 .14.237c.033.094.05.206.05.333 0 .127-.017.257-.05.39a2.19 2.19 0 0 1-.14.392c-.083.175-.059.343.051.377.109.033.265-.08.348-.256.092-.192.163-.394.213-.593.05-.2.076-.398.076-.59 0-.188-.026-.36-.076-.503a.926.926 0 0 0-.213-.355c-.081-.084-.237-.023-.348.134-.11.16-.134.354-.051.434m.966-1.118c.166.273.263.644.263 1.105 0 .46-.097.942-.263 1.398-.064.178-.031.344.073.371.104.029.241-.091.304-.268.208-.57.329-1.175.328-1.749.001-.573-.12-1.04-.328-1.381-.063-.104-.2-.07-.304.073-.103.145-.137.349-.073.451Z" fill="#fff"/><path d="M835.618 38.322c.271.384.427.92.427 1.586 0 .668-.156 1.376-.427 2.065-.074.183-.03.342.092.356.125.016.284-.123.356-.305.316-.802.499-1.633.499-2.408 0-.772-.183-1.399-.499-1.848-.072-.102-.231-.06-.356.092-.122.153-.164.359-.092.462" fill="#fff"/><path d="M836.603 37.2c.39.487.611 1.18.611 2.052 0 .873-.221 1.816-.611 2.74-.079.188-.031.344.108.348.139.005.316-.146.395-.334.438-1.04.688-2.1.688-3.078 0-.98-.25-1.76-.688-2.308-.079-.1-.256-.05-.395.109s-.187.369-.108.471" fill="#fff"/></g></g><path opacity=".6" d="m716.844 0 48.851 119.77 55.807 32.677 56.018-32.731L915.261 0H716.844Z" fill="url(#y)"/><path fill="url(#z)" d="M0 0h645v203H0z"/><defs><linearGradient id="a" x1="779.345" y1="71.241" x2="779.345" y2="119.566" gradientUnits="userSpaceOnUse"><stop stop-color="#454545"/><stop offset="1" stop-color="#2C2C2C"/></linearGradient><linearGradient id="b" x1="862.735" y1="71.333" x2="862.735" y2="119.639" gradientUnits="userSpaceOnUse"><stop stop-color="#454545"/><stop offset="1" stop-color="#2C2C2C"/></linearGradient><linearGradient id="c" x1="792.537" y1="119.566" x2="792.537" y2="213.058" gradientUnits="userSpaceOnUse"><stop stop-color="#2C2C2C"/><stop offset="1" stop-color="#111"/></linearGradient><linearGradient id="d" x1="848.526" y1="119.63" x2="848.526" y2="212.911" gradientUnits="userSpaceOnUse"><stop stop-color="#4A4A4A"/><stop offset="1" stop-color="#343434"/></linearGradient><linearGradient id="e" x1="778.953" y1="119.475" x2="778.953" y2="168.525" gradientUnits="userSpaceOnUse"><stop stop-color="#454545"/><stop offset="1" stop-color="#2C2C2C"/></linearGradient><linearGradient id="f" x1="862.773" y1="119.722" x2="862.773" y2="168.314" gradientUnits="userSpaceOnUse"><stop stop-color="#454545"/><stop offset="1" stop-color="#2C2C2C"/></linearGradient><linearGradient id="g" x1="713.787" y1="192.634" x2="713.787" y2="219.44" gradientUnits="userSpaceOnUse"><stop stop-color="#454545"/><stop offset="1" stop-color="#2C2C2C"/></linearGradient><linearGradient id="h" x1="1023.72" y1="143.899" x2="1023.72" y2="164.786" gradientUnits="userSpaceOnUse"><stop stop-color="#4A4A4A"/><stop offset="1" stop-color="#343434"/></linearGradient><linearGradient id="i" x1="1011.6" y1="143.899" x2="1011.6" y2="164.786" gradientUnits="userSpaceOnUse"><stop stop-color="#2C2C2C"/><stop offset="1" stop-color="#111"/></linearGradient><linearGradient id="j" x1="1017.62" y1="136.919" x2="1017.62" y2="150.862" gradientUnits="userSpaceOnUse"><stop stop-color="#454545"/><stop offset="1" stop-color="#2C2C2C"/></linearGradient><linearGradient id="k" x1="1023.69" y1="143.946" x2="1023.69" y2="150.906" gradientUnits="userSpaceOnUse"><stop stop-color="#525252" stop-opacity="0"/><stop offset="1" stop-color="#737373"/></linearGradient><linearGradient id="l" x1="822.644" y1="17.647" x2="822.644" y2="137.036" gradientUnits="userSpaceOnUse"><stop stop-color="#332F2F"/><stop offset="1"/></linearGradient><linearGradient id="m" x1="618.024" y1="119.577" x2="618.024" y2="149.014" gradientUnits="userSpaceOnUse"><stop stop-color="#4A4A4A"/><stop offset="1" stop-color="#343434"/></linearGradient><linearGradient id="n" x1="600.945" y1="119.577" x2="600.945" y2="149.014" gradientUnits="userSpaceOnUse"><stop stop-color="#2C2C2C"/><stop offset="1" stop-color="#111"/></linearGradient><linearGradient id="o" x1="609.433" y1="109.738" x2="609.433" y2="129.389" gradientUnits="userSpaceOnUse"><stop stop-color="#454545"/><stop offset="1" stop-color="#2C2C2C"/></linearGradient><linearGradient id="p" x1="617.989" y1="119.642" x2="617.989" y2="129.451" gradientUnits="userSpaceOnUse"><stop stop-color="#525252" stop-opacity="0"/><stop offset="1" stop-color="#737373"/></linearGradient><linearGradient id="q" x1="510.48" y1="71.75" x2="510.48" y2="86.927" gradientUnits="userSpaceOnUse"><stop stop-color="#4A4A4A"/><stop offset="1" stop-color="#343434"/></linearGradient><linearGradient id="r" x1="501.675" y1="71.75" x2="501.675" y2="86.927" gradientUnits="userSpaceOnUse"><stop stop-color="#2C2C2C"/><stop offset="1" stop-color="#111"/></linearGradient><linearGradient id="s" x1="506.051" y1="66.678" x2="506.051" y2="76.809" gradientUnits="userSpaceOnUse"><stop stop-color="#454545"/><stop offset="1" stop-color="#2C2C2C"/></linearGradient><linearGradient id="t" x1="510.462" y1="71.784" x2="510.462" y2="76.841" gradientUnits="userSpaceOnUse"><stop stop-color="#525252" stop-opacity="0"/><stop offset="1" stop-color="#737373"/></linearGradient><linearGradient id="x" x1="828.909" y1="38.084" x2="827.635" y2="51.457" gradientUnits="userSpaceOnUse"><stop stop-color="#808285"/><stop offset=".39" stop-color="#D1D3D4"/><stop offset=".637" stop-color="#E7E8E8"/><stop offset=".863" stop-color="#939598"/><stop offset="1" stop-color="#939598"/></linearGradient><linearGradient id="y" x1="819.164" y1="12.068" x2="821.907" y2="152.125" gradientUnits="userSpaceOnUse"><stop stop-color="#fff" stop-opacity="0"/><stop offset="1" stop-color="#fff" stop-opacity=".38"/></linearGradient><linearGradient id="z" x1="0" y1="102" x2="645" y2="102" gradientUnits="userSpaceOnUse"><stop stop-color="#141414"/><stop offset="1" stop-color="#141414" stop-opacity="0"/></linearGradient><clipPath id="v"><path d="M845.825 18.395c1.66-.93 3.006-.14 3.006 1.762v86.135c0 1.903-1.346 4.199-3.006 5.129l-45.092 25.252c-1.66.93-3.006.141-3.006-1.762V48.777c0-1.903 1.346-4.2 3.006-5.13l45.092-25.252Z" fill="#fff"/></clipPath><clipPath id="w"><path fill="#fff" transform="matrix(.8725 -.48862 0 1 833.049 106.517)" d="M0 0h13.782v7.178H0z"/></clipPath><filter id="u" x="796.579" y="15.563" width="53.401" height="123.942" filterUnits="userSpaceOnUse" color-interpolation-filters="sRGB"><feFlood flood-opacity="0" result="BackgroundImageFix"/><feGaussianBlur in="BackgroundImage" stdDeviation=".574"/><feComposite in2="SourceAlpha" operator="in" result="effect1_backgroundBlur_2_498"/><feBlend in="SourceGraphic" in2="effect1_backgroundBlur_2_498" result="shape"/></filter></defs></svg>