<svg width="150" height="48" viewBox="0 0 150 48" fill="none" xmlns="http://www.w3.org/2000/svg">
<rect x="0.5" width="149.5" height="48" rx="7.38626" fill="black"/>
<path d="M55.4392 17.7577C54.7761 17.7577 54.1655 17.5968 53.6074 17.2751C53.0494 16.9534 52.6062 16.5102 52.2779 15.9456C51.9496 15.3809 51.7855 14.7572 51.7855 14.0744C51.7855 13.3916 51.9496 12.7678 52.2779 12.2032C52.6062 11.6386 53.0494 11.1954 53.6074 10.8737C54.1655 10.552 54.7761 10.3911 55.4392 10.3911C55.9579 10.3911 56.4438 10.483 56.8968 10.6669C57.3564 10.8507 57.7339 11.11 58.0293 11.4449L57.4286 12.0456C57.2054 11.7699 56.9198 11.5598 56.5718 11.4153C56.2238 11.2643 55.8496 11.1888 55.4491 11.1888C54.9501 11.1888 54.4839 11.3103 54.0506 11.5532C53.6238 11.7896 53.2792 12.1277 53.0165 12.5676C52.7605 13.0009 52.6324 13.5032 52.6324 14.0744C52.6324 14.6456 52.7605 15.1511 53.0165 15.591C53.2792 16.0244 53.6271 16.3625 54.0605 16.6054C54.4938 16.8418 54.9567 16.96 55.4491 16.96C55.9218 16.96 56.3157 16.8877 56.6309 16.7433C56.9526 16.5923 57.2283 16.3953 57.4581 16.1524C57.6288 15.9686 57.7667 15.7486 57.8718 15.4926C57.9768 15.2299 58.0425 14.941 58.0687 14.6259H55.4589V13.8479H58.8468C58.8796 14.0317 58.896 14.2024 58.896 14.36C58.896 14.7933 58.8271 15.2168 58.6892 15.6304C58.5513 16.0375 58.3314 16.3953 58.0293 16.7039C57.3793 17.4064 56.516 17.7577 55.4392 17.7577ZM62.1616 17.7577C61.6824 17.7577 61.2523 17.6428 60.8715 17.413C60.4907 17.1832 60.192 16.868 59.9753 16.4675C59.7652 16.0605 59.6602 15.6042 59.6602 15.0986C59.6602 14.6128 59.7586 14.1663 59.9556 13.7592C60.1591 13.3522 60.4447 13.0272 60.8124 12.7843C61.1801 12.5413 61.6069 12.4199 62.0927 12.4199C62.5851 12.4199 63.0119 12.5315 63.373 12.7547C63.7341 12.9714 64.0098 13.2734 64.2002 13.6608C64.3972 14.0481 64.4957 14.4913 64.4957 14.9903C64.4957 15.0888 64.4858 15.1741 64.4662 15.2463H60.4973C60.517 15.6271 60.6089 15.9489 60.773 16.2115C60.9372 16.4741 61.144 16.6711 61.3935 16.8024C61.6495 16.9337 61.9154 16.9993 62.1912 16.9993C62.8346 16.9993 63.3303 16.6973 63.6783 16.0933L64.3874 16.438C64.1707 16.8451 63.8753 17.1668 63.501 17.4031C63.1333 17.6395 62.6869 17.7577 62.1616 17.7577ZM63.6093 14.557C63.5962 14.3469 63.5371 14.1368 63.4321 13.9267C63.327 13.7166 63.1596 13.5393 62.9298 13.3949C62.7066 13.2504 62.4243 13.1782 62.0829 13.1782C61.6889 13.1782 61.3541 13.3062 61.0783 13.5623C60.8091 13.8118 60.6319 14.1433 60.5465 14.557H63.6093ZM67.2614 17.6789C67.0579 17.6789 66.8675 17.6461 66.6902 17.5804C66.5195 17.5147 66.375 17.4261 66.2569 17.3145C66.1255 17.1898 66.0271 17.0453 65.9614 16.8812C65.8958 16.717 65.8629 16.5168 65.8629 16.2804V13.3358H64.9864V12.5774H65.8629V11.1593H66.7V12.5774H67.9212V13.3358H66.7V16.0736C66.7 16.3494 66.7526 16.5529 66.8576 16.6842C66.9824 16.8286 67.1629 16.9009 67.3993 16.9009C67.5897 16.9009 67.7735 16.8451 67.9508 16.7334V17.5509C67.8523 17.5968 67.7505 17.6296 67.6455 17.6493C67.547 17.669 67.419 17.6789 67.2614 17.6789ZM71.7191 11.6517C71.5549 11.6517 71.4138 11.5926 71.2956 11.4744C71.1774 11.3562 71.1183 11.2151 71.1183 11.051C71.1183 10.8868 71.1774 10.7489 71.2956 10.6373C71.4138 10.5191 71.5549 10.4601 71.7191 10.4601C71.8832 10.4601 72.0244 10.5191 72.1426 10.6373C72.2607 10.7489 72.3198 10.8868 72.3198 11.051C72.3198 11.2151 72.2607 11.3562 72.1426 11.4744C72.0309 11.5926 71.8898 11.6517 71.7191 11.6517ZM71.3054 12.5774H72.1327V17.6001H71.3054V12.5774ZM75.3305 17.6789C75.127 17.6789 74.9366 17.6461 74.7593 17.5804C74.5886 17.5147 74.4441 17.4261 74.326 17.3145C74.1946 17.1898 74.0962 17.0453 74.0305 16.8812C73.9649 16.717 73.932 16.5168 73.932 16.2804V13.3358H73.0555V12.5774H73.932V11.1593H74.7691V12.5774H75.9903V13.3358H74.7691V16.0736C74.7691 16.3494 74.8217 16.5529 74.9267 16.6842C75.0515 16.8286 75.232 16.9009 75.4684 16.9009C75.6588 16.9009 75.8426 16.8451 76.0199 16.7334V17.5509C75.9214 17.5968 75.8196 17.6296 75.7146 17.6493C75.6161 17.669 75.4881 17.6789 75.3305 17.6789ZM81.6101 17.7577C81.1177 17.7577 80.6745 17.6395 80.2806 17.4031C79.8867 17.1668 79.5781 16.8451 79.3548 16.438C79.1382 16.0309 79.0298 15.5812 79.0298 15.0888C79.0298 14.5964 79.1382 14.1466 79.3548 13.7395C79.5781 13.3325 79.8867 13.0108 80.2806 12.7744C80.6745 12.5381 81.1177 12.4199 81.6101 12.4199C82.1025 12.4199 82.5457 12.5381 82.9396 12.7744C83.3336 13.0108 83.6389 13.3325 83.8555 13.7395C84.0788 14.1466 84.1904 14.5964 84.1904 15.0888C84.1904 15.5812 84.0788 16.0309 83.8555 16.438C83.6389 16.8451 83.3336 17.1668 82.9396 17.4031C82.5457 17.6395 82.1025 17.7577 81.6101 17.7577ZM81.6101 16.9993C81.9187 16.9993 82.2043 16.9238 82.4669 16.7728C82.7361 16.6153 82.9495 16.392 83.1071 16.1031C83.2712 15.8143 83.3533 15.4761 83.3533 15.0888C83.3533 14.7014 83.2712 14.3633 83.1071 14.0744C82.9495 13.7855 82.7361 13.5656 82.4669 13.4146C82.2043 13.257 81.9187 13.1782 81.6101 13.1782C81.3015 13.1782 81.0126 13.257 80.7435 13.4146C80.4743 13.5656 80.2576 13.7855 80.0935 14.0744C79.9359 14.3633 79.8571 14.7014 79.8571 15.0888C79.8571 15.4761 79.9359 15.8143 80.0935 16.1031C80.2576 16.392 80.4743 16.6153 80.7435 16.7728C81.0126 16.9238 81.3015 16.9993 81.6101 16.9993ZM85.0663 12.5774H85.864V13.3161H85.9034C86.0413 13.0666 86.2612 12.8565 86.5632 12.6858C86.8652 12.5085 87.1869 12.4199 87.5284 12.4199C88.1324 12.4199 88.592 12.5971 88.9071 12.9517C89.2288 13.2997 89.3897 13.7757 89.3897 14.3797V17.6001H88.5526V14.5077C88.5526 14.0416 88.441 13.7034 88.2177 13.4933C87.9945 13.2832 87.6892 13.1782 87.3018 13.1782C87.0327 13.1782 86.7897 13.2537 86.5731 13.4047C86.363 13.5557 86.1988 13.756 86.0806 14.0055C85.9625 14.2484 85.9034 14.5044 85.9034 14.7736V17.6001H85.0663V12.5774Z" fill="white"/>
<path d="M58.3352 34.8365C57.3208 34.8365 56.3852 34.6001 55.5284 34.1274C54.6814 33.6448 54.0068 32.985 53.5045 32.1479C53.0023 31.3009 52.7511 30.3555 52.7511 29.3115C52.7511 28.2676 53.0023 27.3271 53.5045 26.49C54.0068 25.643 54.6814 24.9832 55.5284 24.5105C56.3852 24.0279 57.3208 23.7866 58.3352 23.7866C59.1624 23.7866 59.9158 23.9343 60.5953 24.2298C61.2847 24.5154 61.8756 24.9241 62.3681 25.4559L60.9942 26.8002C60.6397 26.426 60.2457 26.1453 59.8124 25.9582C59.3889 25.7711 58.8916 25.6775 58.3204 25.6775C57.6704 25.6775 57.0746 25.8301 56.5329 26.1354C55.9912 26.4309 55.5579 26.8593 55.2329 27.4207C54.9178 27.9722 54.7602 28.6025 54.7602 29.3115C54.7602 30.0206 54.9227 30.6558 55.2477 31.2172C55.5727 31.7687 56.006 32.1971 56.5477 32.5024C57.0992 32.7979 57.6999 32.9456 58.3499 32.9456C59.3348 32.9456 60.1423 32.6551 60.7726 32.074C60.9696 31.8967 61.1419 31.6702 61.2897 31.3945C61.4374 31.1187 61.5457 30.8183 61.6147 30.4933H58.2908V28.7945H63.476C63.5449 29.0703 63.5794 29.3805 63.5794 29.7252C63.5794 30.4244 63.4711 31.0744 63.2544 31.6751C63.0476 32.2759 62.7275 32.8028 62.2942 33.2558C61.8215 33.7679 61.2503 34.1618 60.5806 34.4376C59.9109 34.7035 59.1624 34.8365 58.3352 34.8365ZM68.754 34.8365C67.976 34.8365 67.2817 34.6641 66.6711 34.3194C66.0605 33.9649 65.5829 33.4872 65.2382 32.8865C64.9033 32.2759 64.7359 31.5914 64.7359 30.8331C64.7359 30.0846 64.9033 29.4051 65.2382 28.7945C65.5829 28.1839 66.0605 27.7063 66.6711 27.3616C67.2817 27.007 67.976 26.8298 68.754 26.8298C69.5222 26.8298 70.2116 27.007 70.8222 27.3616C71.4328 27.7063 71.9055 28.1839 72.2404 28.7945C72.5851 29.4051 72.7574 30.0846 72.7574 30.8331C72.7574 31.5914 72.5851 32.2759 72.2404 32.8865C71.9055 33.4872 71.4328 33.9649 70.8222 34.3194C70.2116 34.6641 69.5222 34.8365 68.754 34.8365ZM68.754 33.049C69.1283 33.049 69.473 32.9603 69.7881 32.7831C70.1033 32.6058 70.3544 32.3498 70.5415 32.0149C70.7286 31.6801 70.8222 31.2861 70.8222 30.8331C70.8222 30.3899 70.7286 30.0009 70.5415 29.6661C70.3544 29.3312 70.1033 29.0752 69.7881 28.8979C69.473 28.7206 69.1283 28.632 68.754 28.632C68.3798 28.632 68.0351 28.7206 67.72 28.8979C67.4048 29.0752 67.1488 29.3312 66.9518 29.6661C66.7647 30.0009 66.6711 30.3899 66.6711 30.8331C66.6711 31.2763 66.7647 31.6702 66.9518 32.0149C67.1488 32.3498 67.4048 32.6058 67.72 32.7831C68.0351 32.9603 68.3798 33.049 68.754 33.049ZM77.8426 34.8365C77.0646 34.8365 76.3703 34.6641 75.7597 34.3194C75.1491 33.9649 74.6714 33.4872 74.3267 32.8865C73.9919 32.2759 73.8245 31.5914 73.8245 30.8331C73.8245 30.0846 73.9919 29.4051 74.3267 28.7945C74.6714 28.1839 75.1491 27.7063 75.7597 27.3616C76.3703 27.007 77.0646 26.8298 77.8426 26.8298C78.6108 26.8298 79.3002 27.007 79.9108 27.3616C80.5214 27.7063 80.9941 28.1839 81.3289 28.7945C81.6736 29.4051 81.846 30.0846 81.846 30.8331C81.846 31.5914 81.6736 32.2759 81.3289 32.8865C80.9941 33.4872 80.5214 33.9649 79.9108 34.3194C79.3002 34.6641 78.6108 34.8365 77.8426 34.8365ZM77.8426 33.049C78.2168 33.049 78.5615 32.9603 78.8767 32.7831C79.1918 32.6058 79.443 32.3498 79.6301 32.0149C79.8172 31.6801 79.9108 31.2861 79.9108 30.8331C79.9108 30.3899 79.8172 30.0009 79.6301 29.6661C79.443 29.3312 79.1918 29.0752 78.8767 28.8979C78.5615 28.7206 78.2168 28.632 77.8426 28.632C77.4684 28.632 77.1237 28.7206 76.8085 28.8979C76.4934 29.0752 76.2373 29.3312 76.0404 29.6661C75.8532 30.0009 75.7597 30.3899 75.7597 30.8331C75.7597 31.2763 75.8532 31.6702 76.0404 32.0149C76.2373 32.3498 76.4934 32.6058 76.8085 32.7831C77.1237 32.9603 77.4684 33.049 77.8426 33.049ZM86.7982 38.0273C85.8429 38.0273 85.0501 37.8107 84.4198 37.3773C83.7895 36.9539 83.3661 36.4417 83.1494 35.841L84.9664 35.1024C85.124 35.4766 85.3653 35.7721 85.6903 35.9887C86.0153 36.2054 86.3846 36.3137 86.7982 36.3137C87.4088 36.3137 87.8914 36.1266 88.2459 35.7524C88.6103 35.3781 88.7925 34.8463 88.7925 34.1569V33.566H88.6743C88.438 33.9009 88.1277 34.1569 87.7436 34.3342C87.3596 34.5115 86.9213 34.6001 86.4289 34.6001C85.8084 34.6001 85.2274 34.4425 84.6857 34.1274C84.1539 33.8024 83.7255 33.3494 83.4005 32.7683C83.0755 32.1774 82.913 31.4929 82.913 30.7149C82.913 29.9369 83.0755 29.2574 83.4005 28.6763C83.7255 28.0854 84.1539 27.6324 84.6857 27.3172C85.2274 26.9923 85.8084 26.8298 86.4289 26.8298C86.9213 26.8298 87.3596 26.9184 87.7436 27.0957C88.1277 27.2729 88.438 27.529 88.6743 27.8638H88.7925V27.0661H90.6538V34.0831C90.6538 34.8906 90.4963 35.5899 90.1811 36.1808C89.866 36.7717 89.4179 37.2247 88.8368 37.5398C88.2558 37.8648 87.5762 38.0273 86.7982 38.0273ZM86.8278 32.8422C87.3694 32.8422 87.8323 32.6551 88.2164 32.2808C88.6005 31.8967 88.7925 31.3748 88.7925 30.7149C88.7925 30.0354 88.6005 29.5134 88.2164 29.149C87.8421 28.7748 87.3793 28.5877 86.8278 28.5877C86.2762 28.5877 85.8084 28.7748 85.4244 29.149C85.0403 29.5233 84.8482 30.0452 84.8482 30.7149C84.8482 31.3846 85.0403 31.9066 85.4244 32.2808C85.8084 32.6551 86.2762 32.8422 86.8278 32.8422ZM92.5451 24.023H94.4803V34.6001H92.5451V24.023ZM99.841 34.8365C99.0925 34.8365 98.4179 34.6641 97.8171 34.3194C97.2164 33.9747 96.7436 33.502 96.399 32.9013C96.0641 32.2907 95.8967 31.6062 95.8967 30.8479C95.8967 30.129 96.0641 29.4642 96.399 28.8536C96.7338 28.2331 97.1967 27.7407 97.7876 27.3763C98.3785 27.012 99.0383 26.8298 99.7671 26.8298C100.545 26.8298 101.215 26.9972 101.776 27.332C102.338 27.6669 102.761 28.1248 103.047 28.7059C103.342 29.2869 103.49 29.932 103.49 30.6411C103.49 30.8676 103.475 31.0842 103.445 31.2911H97.7876C97.8861 31.8918 98.1224 32.3498 98.4967 32.6649C98.8807 32.9702 99.3387 33.1228 99.8705 33.1228C100.314 33.1228 100.693 33.0293 101.008 32.8422C101.333 32.6452 101.589 32.3842 101.776 32.0592L103.342 32.8274C102.574 34.1668 101.407 34.8365 99.841 34.8365ZM101.628 29.9172C101.609 29.6809 101.52 29.4494 101.363 29.2229C101.215 28.9865 101.003 28.7945 100.727 28.6468C100.461 28.4892 100.146 28.4104 99.7819 28.4104C99.319 28.4104 98.9201 28.5483 98.5853 28.824C98.2603 29.09 98.0239 29.4543 97.8762 29.9172H101.628ZM108.709 24.023H112.431C113.101 24.023 113.712 24.1658 114.263 24.4514C114.815 24.7271 115.248 25.1211 115.563 25.6332C115.878 26.1354 116.036 26.7116 116.036 27.3616C116.036 28.0116 115.878 28.5926 115.563 29.1047C115.248 29.6168 114.815 30.0157 114.263 30.3013C113.712 30.5771 113.101 30.7149 112.431 30.7149H110.703V34.6001H108.709V24.023ZM112.49 28.824C112.983 28.824 113.367 28.6812 113.643 28.3956C113.928 28.11 114.071 27.7653 114.071 27.3616C114.071 26.9578 113.928 26.618 113.643 26.3423C113.367 26.0567 112.983 25.9139 112.49 25.9139H110.703V28.824H112.49ZM117.531 24.023H119.467V34.6001H117.531V24.023ZM123.601 34.8365C122.803 34.8365 122.149 34.605 121.636 34.1421C121.124 33.6694 120.868 33.0539 120.868 32.2956C120.868 31.7933 121.001 31.3501 121.267 30.9661C121.533 30.582 121.897 30.2865 122.36 30.0797C122.823 29.8729 123.335 29.7695 123.897 29.7695C124.675 29.7695 125.339 29.8827 125.891 30.1093V29.7843C125.891 29.3706 125.733 29.0358 125.418 28.7797C125.113 28.5237 124.699 28.3956 124.177 28.3956C123.823 28.3956 123.478 28.4794 123.143 28.6468C122.818 28.8043 122.547 29.0161 122.331 29.282L121.09 28.307C121.454 27.8343 121.912 27.4699 122.464 27.2138C123.015 26.9578 123.616 26.8298 124.266 26.8298C125.418 26.8298 126.295 27.0957 126.895 27.6275C127.496 28.1593 127.797 28.9373 127.797 29.9615V34.6001H125.891V33.8319H125.773C125.546 34.1274 125.246 34.3687 124.872 34.5558C124.507 34.7429 124.084 34.8365 123.601 34.8365ZM124.059 33.3297C124.62 33.3297 125.064 33.1524 125.389 32.7979C125.723 32.4335 125.891 32.01 125.891 31.5274C125.389 31.2911 124.862 31.1729 124.31 31.1729C123.306 31.1729 122.803 31.5471 122.803 32.2956C122.803 32.6009 122.912 32.852 123.128 33.049C123.345 33.2361 123.655 33.3297 124.059 33.3297ZM131.782 34.2456L128.606 27.0661H130.807L132.757 31.749H132.875L134.751 27.0661H136.908L132.255 37.791H130.172L131.782 34.2456Z" fill="white"/>
<g clip-path="url(#clip0)">
<path d="M30.927 18.6121L16.1099 10.2771C15.9237 10.1707 15.6895 10.1766 15.5093 10.283C15.3231 10.3894 15.209 10.5786 15.209 10.7914C15.209 10.7914 15.215 11.5599 15.221 12.8249L26.014 23.4475L30.927 18.6121Z" fill="#00F076"/>
<path d="M15.2197 12.8247C15.2377 17.3883 15.2918 28.4661 15.3158 33.9814L26.0187 23.4474L15.2197 12.8247Z" fill="#00D2FF"/>
<path d="M39.4065 23.3823L30.9258 18.6118L26.0068 23.4473L31.5565 28.9094L39.4125 24.4049C39.5987 24.2985 39.7128 24.1034 39.7128 23.8965C39.7128 23.6837 39.5927 23.4887 39.4065 23.3823Z" fill="#FFCE00"/>
<path d="M15.3101 33.9812C15.3221 35.9497 15.3281 37.2088 15.3281 37.2088C15.3281 37.4216 15.4422 37.6167 15.6284 37.7172C15.8146 37.8236 16.0428 37.8236 16.229 37.7172L31.5626 28.9152L26.013 23.4531L15.3101 33.9812Z" fill="#FB3746"/>
</g>
<defs>
<clipPath id="clip0">
<rect width="24.5082" height="27.6" fill="white" transform="translate(15.2051 10.2002)"/>
</clipPath>
</defs>
</svg>
