<svg width="150" height="48" viewBox="0 0 150 48" fill="none" xmlns="http://www.w3.org/2000/svg">
<rect width="149.5" height="48" rx="7.38626" fill="black"/>
<path fill-rule="evenodd" clip-rule="evenodd" d="M39.2138 30.2886C38.5439 31.7567 38.2233 32.4118 37.3611 33.7092C36.1574 35.5209 34.4616 37.7765 32.3603 37.7954C30.4925 37.8124 30.013 36.5935 27.4788 36.6074C24.9446 36.6211 24.4154 37.8168 22.5474 37.8C20.4461 37.7808 18.8388 35.7437 17.6354 33.9327C14.2703 28.8678 13.9186 22.9238 15.9939 19.7639C17.469 17.5182 19.7949 16.2036 21.983 16.2036C24.2105 16.2036 25.6106 17.4115 27.4524 17.4115C29.2386 17.4115 30.3276 16.2017 32.9026 16.2017C34.8491 16.2017 36.9116 17.2494 38.3814 19.062C33.5664 21.6708 34.3483 28.4709 39.2138 30.2886Z" fill="#FFFFFE"/>
<path fill-rule="evenodd" clip-rule="evenodd" d="M30.9497 14.1784C31.8847 12.9911 32.5959 11.3137 32.3381 9.6001C30.81 9.70417 29.0215 10.6655 27.9776 11.919C27.03 13.0571 26.2481 14.7448 26.5527 16.3848C28.2211 16.4359 29.9473 15.4506 30.9497 14.1784Z" fill="#FFFFFE"/>
<path d="M52.355 10.5487H54.4822C55.2044 10.5487 55.8347 10.6997 56.3731 11.0017C56.9115 11.2972 57.3251 11.7108 57.614 12.2426C57.9029 12.7744 58.0473 13.385 58.0473 14.0744C58.0473 14.7638 57.9029 15.3744 57.614 15.9062C57.3251 16.438 56.9115 16.8549 56.3731 17.1569C55.8347 17.4524 55.2044 17.6001 54.4822 17.6001H52.355V10.5487ZM54.4822 16.8024C55.316 16.8024 55.9759 16.5627 56.4617 16.0835C56.9541 15.6042 57.2003 14.9345 57.2003 14.0744C57.2003 13.2143 56.9541 12.5446 56.4617 12.0653C55.9759 11.586 55.316 11.3464 54.4822 11.3464H53.1822V16.8024H54.4822ZM61.2822 17.7577C60.7898 17.7577 60.3467 17.6395 59.9527 17.4031C59.5588 17.1668 59.2502 16.8451 59.027 16.438C58.8103 16.0309 58.702 15.5812 58.702 15.0888C58.702 14.5964 58.8103 14.1466 59.027 13.7395C59.2502 13.3325 59.5588 13.0108 59.9527 12.7744C60.3467 12.5381 60.7898 12.4199 61.2822 12.4199C61.7747 12.4199 62.2178 12.5381 62.6118 12.7744C63.0057 13.0108 63.311 13.3325 63.5277 13.7395C63.7509 14.1466 63.8625 14.5964 63.8625 15.0888C63.8625 15.5812 63.7509 16.0309 63.5277 16.438C63.311 16.8451 63.0057 17.1668 62.6118 17.4031C62.2178 17.6395 61.7747 17.7577 61.2822 17.7577ZM61.2822 16.9993C61.5908 16.9993 61.8764 16.9238 62.1391 16.7728C62.4082 16.6153 62.6216 16.392 62.7792 16.1031C62.9433 15.8143 63.0254 15.4761 63.0254 15.0888C63.0254 14.7014 62.9433 14.3633 62.7792 14.0744C62.6216 13.7855 62.4082 13.5656 62.1391 13.4146C61.8764 13.257 61.5908 13.1782 61.2822 13.1782C60.9737 13.1782 60.6848 13.257 60.4156 13.4146C60.1464 13.5656 59.9297 13.7855 59.7656 14.0744C59.608 14.3633 59.5292 14.7014 59.5292 15.0888C59.5292 15.4761 59.608 15.8143 59.7656 16.1031C59.9297 16.392 60.1464 16.6153 60.4156 16.7728C60.6848 16.9238 60.9737 16.9993 61.2822 16.9993ZM64.1869 12.5774H65.0437L66.2452 16.5463H66.255L67.5156 12.5774H68.3823L69.6527 16.5365H69.6626L70.8542 12.5774H71.7012L70.0762 17.6001H69.2292L67.9293 13.5918L66.6391 17.6001H65.802L64.1869 12.5774ZM72.3939 12.5774H73.1917V13.3161H73.2311C73.3689 13.0666 73.5889 12.8565 73.8909 12.6858C74.1929 12.5085 74.5146 12.4199 74.856 12.4199C75.4601 12.4199 75.9197 12.5971 76.2348 12.9517C76.5565 13.2997 76.7174 13.7757 76.7174 14.3797V17.6001H75.8803V14.5077C75.8803 14.0416 75.7686 13.7034 75.5454 13.4933C75.3222 13.2832 75.0169 13.1782 74.6295 13.1782C74.3603 13.1782 74.1174 13.2537 73.9007 13.4047C73.6906 13.5557 73.5265 13.756 73.4083 14.0055C73.2901 14.2484 73.2311 14.5044 73.2311 14.7736V17.6001H72.3939V12.5774ZM77.9144 10.5487H78.7515V17.6001H77.9144V10.5487ZM82.2581 17.7577C81.7656 17.7577 81.3225 17.6395 80.9285 17.4031C80.5346 17.1668 80.226 16.8451 80.0028 16.438C79.7861 16.0309 79.6778 15.5812 79.6778 15.0888C79.6778 14.5964 79.7861 14.1466 80.0028 13.7395C80.226 13.3325 80.5346 13.0108 80.9285 12.7744C81.3225 12.5381 81.7656 12.4199 82.2581 12.4199C82.7505 12.4199 83.1937 12.5381 83.5876 12.7744C83.9815 13.0108 84.2868 13.3325 84.5035 13.7395C84.7267 14.1466 84.8383 14.5964 84.8383 15.0888C84.8383 15.5812 84.7267 16.0309 84.5035 16.438C84.2868 16.8451 83.9815 17.1668 83.5876 17.4031C83.1937 17.6395 82.7505 17.7577 82.2581 17.7577ZM82.2581 16.9993C82.5666 16.9993 82.8522 16.9238 83.1149 16.7728C83.3841 16.6153 83.5974 16.392 83.755 16.1031C83.9191 15.8143 84.0012 15.4761 84.0012 15.0888C84.0012 14.7014 83.9191 14.3633 83.755 14.0744C83.5974 13.7855 83.3841 13.5656 83.1149 13.4146C82.8522 13.257 82.5666 13.1782 82.2581 13.1782C81.9495 13.1782 81.6606 13.257 81.3914 13.4146C81.1222 13.5656 80.9056 13.7855 80.7414 14.0744C80.5838 14.3633 80.5051 14.7014 80.5051 15.0888C80.5051 15.4761 80.5838 15.8143 80.7414 16.1031C80.9056 16.392 81.1222 16.6153 81.3914 16.7728C81.6606 16.9238 81.9495 16.9993 82.2581 16.9993ZM87.4157 17.7577C87.048 17.7577 86.7197 17.6854 86.4308 17.541C86.1419 17.3966 85.9187 17.1996 85.7611 16.9501C85.6036 16.6941 85.5248 16.4052 85.5248 16.0835C85.5248 15.5516 85.725 15.138 86.1255 14.8426C86.526 14.5405 87.0316 14.3895 87.6422 14.3895C87.9442 14.3895 88.2232 14.4224 88.4793 14.488C88.7419 14.5537 88.9422 14.6292 89.08 14.7145V14.4092C89.08 14.035 88.9487 13.7363 88.6861 13.513C88.4235 13.2832 88.0919 13.1683 87.6914 13.1683C87.4091 13.1683 87.1498 13.2307 86.9134 13.3555C86.677 13.4736 86.4899 13.6411 86.352 13.8577L85.7218 13.385C85.9187 13.083 86.1879 12.8466 86.5293 12.6759C86.8773 12.5052 87.2614 12.4199 87.6816 12.4199C88.3644 12.4199 88.8995 12.6004 89.2869 12.9615C89.6808 13.3161 89.8778 13.8019 89.8778 14.4191V17.6001H89.08V16.8812H89.0406C88.8962 17.1241 88.6795 17.3309 88.3907 17.5016C88.1018 17.6723 87.7768 17.7577 87.4157 17.7577ZM87.4945 17.019C87.7768 17.019 88.0394 16.9468 88.2823 16.8024C88.5252 16.6579 88.7189 16.4643 88.8634 16.2213C89.0078 15.9784 89.08 15.7125 89.08 15.4236C88.9225 15.3186 88.7288 15.2332 88.499 15.1676C88.2692 15.1019 88.0263 15.0691 87.7702 15.0691C87.3106 15.0691 86.9626 15.1643 86.7263 15.3547C86.4965 15.5451 86.3816 15.7913 86.3816 16.0933C86.3816 16.3691 86.4866 16.5923 86.6967 16.763C86.9068 16.9337 87.1727 17.019 87.4945 17.019ZM93.1215 17.7577C92.675 17.7577 92.2679 17.6428 91.9003 17.413C91.5392 17.1832 91.2536 16.868 91.0435 16.4675C90.8334 16.0605 90.7283 15.6009 90.7283 15.0888C90.7283 14.5832 90.8334 14.1269 91.0435 13.7199C91.2536 13.3128 91.5392 12.9944 91.9003 12.7646C92.2679 12.5348 92.675 12.4199 93.1215 12.4199C93.5088 12.4199 93.8535 12.5085 94.1555 12.6858C94.4576 12.8565 94.6874 13.0699 94.8449 13.3259H94.8843L94.8449 12.6267V10.5487H95.682V17.6001H94.8843V16.8615H94.8449C94.6874 17.111 94.4576 17.3243 94.1555 17.5016C93.8535 17.6723 93.5088 17.7577 93.1215 17.7577ZM93.22 16.9993C93.5154 16.9993 93.7879 16.9206 94.0374 16.763C94.2934 16.6054 94.497 16.3822 94.648 16.0933C94.8055 15.8044 94.8843 15.4696 94.8843 15.0888C94.8843 14.708 94.8055 14.3731 94.648 14.0842C94.497 13.7954 94.2934 13.5721 94.0374 13.4146C93.7879 13.257 93.5154 13.1782 93.22 13.1782C92.9311 13.1782 92.6586 13.257 92.4025 13.4146C92.1465 13.5721 91.9397 13.7986 91.7821 14.0941C91.6311 14.383 91.5556 14.7145 91.5556 15.0888C91.5556 15.463 91.6311 15.7979 91.7821 16.0933C91.9397 16.3822 92.1465 16.6054 92.4025 16.763C92.6586 16.9206 92.9311 16.9993 93.22 16.9993ZM101.522 17.7577C101.03 17.7577 100.586 17.6395 100.192 17.4031C99.7985 17.1668 99.4899 16.8451 99.2667 16.438C99.05 16.0309 98.9417 15.5812 98.9417 15.0888C98.9417 14.5964 99.05 14.1466 99.2667 13.7395C99.4899 13.3325 99.7985 13.0108 100.192 12.7744C100.586 12.5381 101.03 12.4199 101.522 12.4199C102.014 12.4199 102.458 12.5381 102.851 12.7744C103.245 13.0108 103.551 13.3325 103.767 13.7395C103.991 14.1466 104.102 14.5964 104.102 15.0888C104.102 15.5812 103.991 16.0309 103.767 16.438C103.551 16.8451 103.245 17.1668 102.851 17.4031C102.458 17.6395 102.014 17.7577 101.522 17.7577ZM101.522 16.9993C101.831 16.9993 102.116 16.9238 102.379 16.7728C102.648 16.6153 102.861 16.392 103.019 16.1031C103.183 15.8143 103.265 15.4761 103.265 15.0888C103.265 14.7014 103.183 14.3633 103.019 14.0744C102.861 13.7855 102.648 13.5656 102.379 13.4146C102.116 13.257 101.831 13.1782 101.522 13.1782C101.213 13.1782 100.924 13.257 100.655 13.4146C100.386 13.5656 100.169 13.7855 100.005 14.0744C99.8477 14.3633 99.7689 14.7014 99.7689 15.0888C99.7689 15.4761 99.8477 15.8143 100.005 16.1031C100.169 16.392 100.386 16.6153 100.655 16.7728C100.924 16.9238 101.213 16.9993 101.522 16.9993ZM104.978 12.5774H105.776V13.3161H105.815C105.953 13.0666 106.173 12.8565 106.475 12.6858C106.777 12.5085 107.099 12.4199 107.44 12.4199C108.044 12.4199 108.504 12.5971 108.819 12.9517C109.141 13.2997 109.302 13.7757 109.302 14.3797V17.6001H108.464V14.5077C108.464 14.0416 108.353 13.7034 108.13 13.4933C107.906 13.2832 107.601 13.1782 107.214 13.1782C106.944 13.1782 106.702 13.2537 106.485 13.4047C106.275 13.5557 106.111 13.756 105.992 14.0055C105.874 14.2484 105.815 14.5044 105.815 14.7736V17.6001H104.978V12.5774ZM114.718 17.6789C114.514 17.6789 114.324 17.6461 114.147 17.5804C113.976 17.5147 113.831 17.4261 113.713 17.3145C113.582 17.1898 113.483 17.0453 113.418 16.8812C113.352 16.717 113.319 16.5168 113.319 16.2804V13.3358H112.443V12.5774H113.319V11.1593H114.156V12.5774H115.378V13.3358H114.156V16.0736C114.156 16.3494 114.209 16.5529 114.314 16.6842C114.439 16.8286 114.619 16.9009 114.856 16.9009C115.046 16.9009 115.23 16.8451 115.407 16.7334V17.5509C115.309 17.5968 115.207 17.6296 115.102 17.6493C115.003 17.669 114.875 17.6789 114.718 17.6789ZM116.442 10.5487H117.279V12.6267L117.24 13.3161H117.279C117.417 13.06 117.634 12.8466 117.929 12.6759C118.231 12.5052 118.56 12.4199 118.914 12.4199C119.525 12.4199 119.991 12.6004 120.313 12.9615C120.634 13.3161 120.795 13.7888 120.795 14.3797V17.6001H119.958V14.5077C119.958 14.0547 119.843 13.7199 119.613 13.5032C119.384 13.2865 119.085 13.1782 118.717 13.1782C118.455 13.1782 118.212 13.257 117.988 13.4146C117.772 13.5721 117.598 13.7757 117.466 14.0251C117.342 14.2746 117.279 14.534 117.279 14.8032V17.6001H116.442V10.5487ZM124.237 17.7577C123.757 17.7577 123.327 17.6428 122.947 17.413C122.566 17.1832 122.267 16.868 122.05 16.4675C121.84 16.0605 121.735 15.6042 121.735 15.0986C121.735 14.6128 121.834 14.1663 122.031 13.7592C122.234 13.3522 122.52 13.0272 122.887 12.7843C123.255 12.5413 123.682 12.4199 124.168 12.4199C124.66 12.4199 125.087 12.5315 125.448 12.7547C125.809 12.9714 126.085 13.2734 126.275 13.6608C126.472 14.0481 126.571 14.4913 126.571 14.9903C126.571 15.0888 126.561 15.1741 126.541 15.2463H122.572C122.592 15.6271 122.684 15.9489 122.848 16.2115C123.012 16.4741 123.219 16.6711 123.469 16.8024C123.725 16.9337 123.99 16.9993 124.266 16.9993C124.91 16.9993 125.405 16.6973 125.753 16.0933L126.462 16.438C126.246 16.8451 125.95 17.1668 125.576 17.4031C125.208 17.6395 124.762 17.7577 124.237 17.7577ZM125.684 14.557C125.671 14.3469 125.612 14.1368 125.507 13.9267C125.402 13.7166 125.235 13.5393 125.005 13.3949C124.782 13.2504 124.499 13.1782 124.158 13.1782C123.764 13.1782 123.429 13.3062 123.153 13.5623C122.884 13.8118 122.707 14.1433 122.622 14.557H125.684Z" fill="white"/>
<path d="M55.6533 24.023H57.943L61.9168 34.6001H59.7157L58.8294 32.074H54.7817L53.8954 34.6001H51.6942L55.6533 24.023ZM58.1794 30.2422L57.2487 27.5832L56.8646 26.3127H56.7464L56.3624 27.5832L55.4169 30.2422H58.1794ZM63.0922 27.0661H64.9092V27.982H65.0274C65.2342 27.657 65.5346 27.3862 65.9285 27.1695C66.3224 26.943 66.7754 26.8298 67.2876 26.8298C67.9671 26.8298 68.5826 27.0021 69.1341 27.3468C69.6955 27.6816 70.1337 28.1544 70.4489 28.765C70.764 29.3756 70.9216 30.0649 70.9216 30.8331C70.9216 31.6111 70.764 32.3054 70.4489 32.916C70.1337 33.5168 69.6955 33.9895 69.1341 34.3342C68.5826 34.669 67.9671 34.8365 67.2876 34.8365C66.7754 34.8365 66.3175 34.7281 65.9137 34.5115C65.5198 34.2948 65.2243 34.024 65.0274 33.699H64.9092L65.0274 34.7626V37.791H63.0922V27.0661ZM66.9478 33.049C67.3122 33.049 67.6519 32.9554 67.9671 32.7683C68.2822 32.5812 68.5334 32.3202 68.7205 31.9854C68.9076 31.6505 69.0012 31.2664 69.0012 30.8331C69.0012 30.3998 68.9076 30.0157 68.7205 29.6809C68.5334 29.346 68.2822 29.09 67.9671 28.9127C67.6519 28.7256 67.3122 28.632 66.9478 28.632C66.5932 28.632 66.2584 28.7256 65.9433 28.9127C65.6281 29.09 65.377 29.346 65.1899 29.6809C65.0027 30.0157 64.9092 30.3998 64.9092 30.8331C64.9092 31.2664 65.0027 31.6505 65.1899 31.9854C65.377 32.3202 65.6281 32.5812 65.9433 32.7683C66.2584 32.9554 66.5932 33.049 66.9478 33.049ZM72.2096 27.0661H74.0266V27.982H74.1448C74.3516 27.657 74.652 27.3862 75.0459 27.1695C75.4398 26.943 75.8929 26.8298 76.405 26.8298C77.0845 26.8298 77.7 27.0021 78.2515 27.3468C78.8129 27.6816 79.2511 28.1544 79.5663 28.765C79.8814 29.3756 80.039 30.0649 80.039 30.8331C80.039 31.6111 79.8814 32.3054 79.5663 32.916C79.2511 33.5168 78.8129 33.9895 78.2515 34.3342C77.7 34.669 77.0845 34.8365 76.405 34.8365C75.8929 34.8365 75.4349 34.7281 75.0311 34.5115C74.6372 34.2948 74.3417 34.024 74.1448 33.699H74.0266L74.1448 34.7626V37.791H72.2096V27.0661ZM76.0652 33.049C76.4296 33.049 76.7694 32.9554 77.0845 32.7683C77.3996 32.5812 77.6508 32.3202 77.8379 31.9854C78.025 31.6505 78.1186 31.2664 78.1186 30.8331C78.1186 30.3998 78.025 30.0157 77.8379 29.6809C77.6508 29.346 77.3996 29.09 77.0845 28.9127C76.7694 28.7256 76.4296 28.632 76.0652 28.632C75.7107 28.632 75.3758 28.7256 75.0607 28.9127C74.7455 29.09 74.4944 29.346 74.3073 29.6809C74.1202 30.0157 74.0266 30.3998 74.0266 30.8331C74.0266 31.2664 74.1202 31.6505 74.3073 31.9854C74.4944 32.3202 74.7455 32.5812 75.0607 32.7683C75.3758 32.9554 75.7107 33.049 76.0652 33.049ZM88.0022 34.8365C87.0765 34.8365 86.259 34.5755 85.55 34.0535C84.8409 33.5316 84.3435 32.7929 84.0579 31.8376L85.934 31.099C86.0818 31.6604 86.3329 32.1085 86.6874 32.4433C87.042 32.7782 87.4852 32.9456 88.017 32.9456C88.4601 32.9456 88.8393 32.8372 89.1545 32.6206C89.4696 32.3941 89.6272 32.0838 89.6272 31.6899C89.6272 31.296 89.4745 30.9759 89.1692 30.7297C88.8738 30.4736 88.342 30.2028 87.5738 29.9172L86.9238 29.6809C86.2443 29.4445 85.6632 29.085 85.1806 28.6025C84.6981 28.11 84.4568 27.4945 84.4568 26.7559C84.4568 26.2044 84.5996 25.7021 84.8852 25.2491C85.1708 24.7961 85.5746 24.4415 86.0965 24.1855C86.6185 23.9196 87.2094 23.7866 87.8692 23.7866C88.8245 23.7866 89.5779 24.0131 90.1294 24.4662C90.6809 24.9093 91.0601 25.4313 91.2669 26.032L89.509 26.7707C89.4007 26.4457 89.2086 26.1748 88.9329 25.9582C88.667 25.7317 88.3223 25.6184 87.8988 25.6184C87.4655 25.6184 87.106 25.7218 86.8204 25.9286C86.5446 26.1256 86.4068 26.3866 86.4068 26.7116C86.4068 27.0267 86.5397 27.2976 86.8056 27.5241C87.0715 27.7407 87.5098 27.9525 88.1204 28.1593L88.7851 28.3809C89.701 28.696 90.4003 29.1146 90.8828 29.6365C91.3753 30.1486 91.6215 30.8233 91.6215 31.6604C91.6215 32.3498 91.4442 32.9357 91.0897 33.4183C90.7351 33.891 90.2772 34.2456 89.7158 34.4819C89.1643 34.7183 88.5931 34.8365 88.0022 34.8365ZM96.1489 34.7183C95.7747 34.7183 95.43 34.6641 95.1148 34.5558C94.7997 34.4376 94.5436 34.28 94.3466 34.0831C93.8838 33.6399 93.6523 33.0096 93.6523 32.1922V28.7206H92.3376V27.0661H93.6523V24.9389H95.5875V27.0661H97.4341V28.7206H95.5875V31.8376C95.5875 32.2217 95.6712 32.4975 95.8387 32.6649C95.9765 32.8225 96.2129 32.9013 96.5477 32.9013C96.7349 32.9013 96.8875 32.8766 97.0057 32.8274C97.1337 32.7782 97.2962 32.6944 97.4932 32.5763V34.4671C97.0697 34.6346 96.6216 34.7183 96.1489 34.7183ZM102.389 34.8365C101.611 34.8365 100.916 34.6641 100.306 34.3194C99.6951 33.9649 99.2175 33.4872 98.8728 32.8865C98.538 32.2759 98.3705 31.5914 98.3705 30.8331C98.3705 30.0846 98.538 29.4051 98.8728 28.7945C99.2175 28.1839 99.6951 27.7063 100.306 27.3616C100.916 27.007 101.611 26.8298 102.389 26.8298C103.157 26.8298 103.846 27.007 104.457 27.3616C105.067 27.7063 105.54 28.1839 105.875 28.7945C106.22 29.4051 106.392 30.0846 106.392 30.8331C106.392 31.5914 106.22 32.2759 105.875 32.8865C105.54 33.4872 105.067 33.9649 104.457 34.3194C103.846 34.6641 103.157 34.8365 102.389 34.8365ZM102.389 33.049C102.763 33.049 103.108 32.9603 103.423 32.7831C103.738 32.6058 103.989 32.3498 104.176 32.0149C104.363 31.6801 104.457 31.2861 104.457 30.8331C104.457 30.3899 104.363 30.0009 104.176 29.6661C103.989 29.3312 103.738 29.0752 103.423 28.8979C103.108 28.7206 102.763 28.632 102.389 28.632C102.014 28.632 101.67 28.7206 101.355 28.8979C101.039 29.0752 100.783 29.3312 100.586 29.6661C100.399 30.0009 100.306 30.3899 100.306 30.8331C100.306 31.2763 100.399 31.6702 100.586 32.0149C100.783 32.3498 101.039 32.6058 101.355 32.7831C101.67 32.9603 102.014 33.049 102.389 33.049ZM107.728 27.0661H109.545V28.0706H109.664C109.851 27.7161 110.141 27.4256 110.535 27.1991C110.929 26.9627 111.362 26.8445 111.835 26.8445C112.18 26.8445 112.495 26.8987 112.781 27.007V28.9422C112.515 28.8437 112.288 28.7748 112.101 28.7354C111.924 28.6862 111.732 28.6615 111.525 28.6615C110.954 28.6615 110.501 28.8684 110.166 29.282C109.831 29.6956 109.664 30.2176 109.664 30.8479V34.6001H107.728V27.0661ZM117.116 34.8365C116.368 34.8365 115.693 34.6641 115.092 34.3194C114.492 33.9747 114.019 33.502 113.674 32.9013C113.339 32.2907 113.172 31.6062 113.172 30.8479C113.172 30.129 113.339 29.4642 113.674 28.8536C114.009 28.2331 114.472 27.7407 115.063 27.3763C115.654 27.012 116.314 26.8298 117.042 26.8298C117.82 26.8298 118.49 26.9972 119.051 27.332C119.613 27.6669 120.036 28.1248 120.322 28.7059C120.617 29.2869 120.765 29.932 120.765 30.6411C120.765 30.8676 120.75 31.0842 120.721 31.2911H115.063C115.161 31.8918 115.398 32.3498 115.772 32.6649C116.156 32.9702 116.614 33.1228 117.146 33.1228C117.589 33.1228 117.968 33.0293 118.283 32.8422C118.608 32.6452 118.864 32.3842 119.051 32.0592L120.617 32.8274C119.849 34.1668 118.682 34.8365 117.116 34.8365ZM118.904 29.9172C118.884 29.6809 118.795 29.4494 118.638 29.2229C118.49 28.9865 118.278 28.7945 118.003 28.6468C117.737 28.4892 117.421 28.4104 117.057 28.4104C116.594 28.4104 116.195 28.5483 115.86 28.824C115.536 29.09 115.299 29.4543 115.151 29.9172H118.904Z" fill="white"/>
</svg>
