<svg width="41" height="13" viewBox="0 0 41 13" fill="none" xmlns="http://www.w3.org/2000/svg">
<g opacity="0.6">
<path d="M14.4526 12.8073L16.5307 0.217285H19.8462L17.7681 12.8073H14.4526Z" fill="white"/>
<path d="M29.816 0.530612C29.1623 0.265306 28.1349 0 26.8508 0C23.5586 0 21.2471 1.71243 21.2471 4.14842C21.2238 5.95733 22.9049 6.97031 24.1657 7.57328C25.4499 8.20037 25.8935 8.58627 25.8935 9.141C25.8935 9.98516 24.8661 10.3711 23.9088 10.3711C22.578 10.3711 21.8775 10.1781 20.7801 9.71985L20.3132 9.50278L19.8462 12.3247C20.6167 12.6865 22.0643 12.9759 23.5586 13C27.0609 13 29.3257 11.3117 29.3491 8.70686C29.3724 7.28386 28.4852 6.1744 26.5706 5.282C25.4032 4.70315 24.7027 4.31725 24.7027 3.71429C24.7027 3.18367 25.3098 2.62894 26.5939 2.62894C27.6913 2.60482 28.4618 2.84601 29.0689 3.11132L29.3724 3.25603L29.816 0.530612Z" fill="white"/>
<path d="M38.3383 0.241211H35.77C34.9761 0.241211 34.3691 0.45828 34.0188 1.27832L29.0923 12.8071H32.5712C32.5712 12.8071 33.1316 11.2635 33.2717 10.9258C33.6453 10.9258 37.0308 10.9258 37.5211 10.9258C37.6145 11.36 37.9181 12.8071 37.9181 12.8071H41.0001L38.3383 0.241211ZM34.2523 8.34511C34.5325 7.62155 35.5832 4.82377 35.5832 4.82377C35.5598 4.84789 35.8634 4.10021 36.0268 3.61783L36.2603 4.70318C36.2603 4.70318 36.8907 7.71802 37.0308 8.34511H34.2523Z" fill="white"/>
<path d="M11.6744 0.217285L8.40556 8.80356L8.05533 7.06701C7.47162 5.06515 5.58038 2.87035 3.479 1.785L6.44428 12.8073H9.96992L15.2 0.217285H11.6744Z" fill="white"/>
<path d="M5.39353 0.217285H0.0466972L0 0.482591C4.1794 1.5197 6.93453 4.05216 8.07862 7.067L6.91119 1.27851C6.70105 0.482591 6.11733 0.241404 5.39353 0.217285Z" fill="white"/>
</g>
</svg>
